# xmcd
#
# Track frame offsets:
# 150
# 13942
# 29055
# 46725
# 65927
# 80902
# 103510
# 118775
# 137825
# 152912
# 174537
# 190172
# 207942
# 223609
# 241722
# 257677
# 273805
# 294185
# 311552
# 327720
#
# Disc length: 4663 seconds
#
#
# Revision: 3
# Processed by: cddbd v1.5.1PL0 Copyright (c) Steve Scherf et al.
# Submitted via: FreeRIP 2.931 
#
DISCID=30123514
DTITLE=John Lennon - Lennon Legend-The Very Best Of John Lennon
DYEAR=1900
DGENRE=Blues
TTITLE0=Imagine
TTITLE1=Instant Karma!
TTITLE2=Mother
TTITLE3=Jealous Guy
TTITLE4=Power To The People
TTITLE5=Cold Turkey
TTITLE6=Love
TTITLE7=Mind Games
TTITLE8=Whatever Gets You Thru The Night
TTITLE9=#9 Dream
TTITLE10=Stand By Me
TTITLE11=(Just Like) Starting Over
TTITLE12=Woman
TTITLE13=Beatiful Boy
TTITLE14=Watching The Wheels
TTITLE15=Nobody Told Me
TTITLE16=Borrowed Time
TTITLE17=Working Class Hero
TTITLE18=Happy Xmas (War Is Over)
TTITLE19=Give Peace A Chance
EXTD=ID3G:   0
EXTT0=
EXTT1=
EXTT2=
EXTT3=
EXTT4=
EXTT5=
EXTT6=
EXTT7=
EXTT8=
EXTT9=
EXTT10=
EXTT11=
EXTT12=
EXTT13=
EXTT14=
EXTT15=
EXTT16=
EXTT17=
EXTT18=
EXTT19=
PLAYORDER=
